<svg width="200" height="200" viewBox="0 0 1024 1024" fill="none" xmlns="http://www.w3.org/2000/svg">
  <!-- Magnifying Glass -->
  <path d="M448 800c194.4 0 352-157.6 352-352S642.4 96 448 96 96 253.6 96 448s157.6 352 352 352z m0-640c158.8 0 288 129.2 288 288s-129.2 288-288 288S160 606.8 160 448s129.2-288 288-288z" fill="#606060"/>
  <path d="M896 928c-8 0-16-3.2-22.4-9.6l-160-160c-12.8-12.8-12.8-33.6 0-46.4s33.6-12.8 46.4 0l160 160c12.8 12.8 12.8 33.6 0 46.4-6.4 6.4-14.4 9.6-22.4 9.6z" fill="#606060"/>
  <!-- Computer Website Icon -->
  <path d="M224 704h576v32H224z" fill="#606060"/>
  <path d="M800 128H224c-35.2 0-64 28.8-64 64v448c0 35.2 28.8 64 64 64h576c35.2 0 64-28.8 64-64V192c0-35.2-28.8-64-64-64z m32 512c0 17.6-14.4 32-32 32H224c-17.6 0-32-14.4-32-32V192c0-17.6 14.4-32 32-32h576c17.6 0 32 14.4 32 32v448z" fill="#606060"/>
</svg>